<?xml version="1.0" encoding="utf-8" standalone="no"?>
<!DOCTYPE svg PUBLIC "-//W3C//DTD SVG 1.1//EN"
  "http://www.w3.org/Graphics/SVG/1.1/DTD/svg11.dtd">
<svg xmlns:xlink="http://www.w3.org/1999/xlink" width="210.193947pt" height="154.111783pt" viewBox="0 0 210.193947 154.111783" xmlns="http://www.w3.org/2000/svg" version="1.1">
 <metadata>
  <rdf:RDF xmlns:dc="http://purl.org/dc/elements/1.1/" xmlns:cc="http://creativecommons.org/ns#" xmlns:rdf="http://www.w3.org/1999/02/22-rdf-syntax-ns#">
   <cc:Work>
    <dc:type rdf:resource="http://purl.org/dc/dcmitype/StillImage"/>
    <dc:date>2026-03-11T13:45:13.297047</dc:date>
    <dc:format>image/svg+xml</dc:format>
    <dc:creator>
     <cc:Agent>
      <dc:title>Matplotlib v3.7.5, https://matplotlib.org/</dc:title>
     </cc:Agent>
    </dc:creator>
   </cc:Work>
  </rdf:RDF>
 </metadata>
 <defs>
  <style type="text/css">*{stroke-linejoin: round; stroke-linecap: butt}</style>
 </defs>
 <g id="figure_1">
  <g id="patch_1">
   <path d="M 0 154.111783 
L 210.193947 154.111783 
L 210.193947 0 
L 0 0 
z
" style="fill: #ffffff"/>
  </g>
  <g id="axes_1">
   <g id="patch_2">
    <path d="M 36.1225 120.426783 
L 196.632697 120.426783 
L 196.632697 20.4945 
L 36.1225 20.4945 
z
" style="fill: #ffffff"/>
   </g>
   <g id="PolyCollection_1">
    <defs>
     <path id="mc2dabfb319" d="M 36.1225 -128.858603 
L 36.1225 -33.685 
L 37.471325 -33.685 
L 38.82015 -33.685 
L 40.168976 -33.685 
L 41.517801 -33.685 
L 42.866626 -33.685 
L 44.215451 -33.685 
L 45.564276 -33.685 
L 46.913101 -33.685 
L 48.261927 -33.685 
L 49.610752 -33.685 
L 50.959577 -33.685 
L 52.308402 -33.685 
L 53.657227 -33.685 
L 55.006053 -33.685 
L 56.354878 -33.685 
L 57.703703 -33.685 
L 59.052528 -33.685 
L 60.401353 -33.685 
L 61.750178 -33.685 
L 63.099004 -33.685 
L 64.447829 -33.685 
L 65.796654 -33.685 
L 67.145479 -33.685 
L 68.494304 -33.685 
L 69.84313 -33.685 
L 71.191955 -33.685 
L 72.54078 -33.685 
L 73.889605 -33.685 
L 75.23843 -33.685 
L 76.587256 -33.685 
L 77.936081 -33.685 
L 79.284906 -33.685 
L 80.633731 -33.685 
L 81.982556 -33.685 
L 83.331381 -33.685 
L 84.680207 -33.685 
L 86.029032 -33.685 
L 87.377857 -33.685 
L 88.726682 -33.685 
L 90.075507 -33.685 
L 91.424333 -33.685 
L 92.773158 -33.685 
L 94.121983 -33.685 
L 95.470808 -33.685 
L 96.819633 -33.685 
L 98.168458 -33.685 
L 99.517284 -33.685 
L 100.866109 -33.685 
L 102.214934 -33.685 
L 103.563759 -33.685 
L 104.912584 -33.685 
L 106.26141 -33.685 
L 107.610235 -33.685 
L 108.95906 -33.685 
L 110.307885 -33.685 
L 111.65671 -33.685 
L 113.005535 -33.685 
L 114.354361 -33.685 
L 115.703186 -33.685 
L 117.052011 -33.685 
L 118.400836 -33.685 
L 119.749661 -33.685 
L 121.098487 -33.685 
L 122.447312 -33.685 
L 123.796137 -33.685 
L 125.144962 -33.685 
L 126.493787 -33.685 
L 127.842612 -33.685 
L 129.191438 -33.685 
L 130.540263 -33.685 
L 131.889088 -33.685 
L 133.237913 -33.685 
L 134.586738 -33.685 
L 135.935564 -33.685 
L 137.284389 -33.685 
L 138.633214 -33.685 
L 139.982039 -33.685 
L 141.330864 -33.685 
L 142.67969 -33.685 
L 144.028515 -33.685 
L 145.37734 -33.685 
L 146.726165 -33.685 
L 148.07499 -33.685 
L 149.423815 -33.685 
L 150.772641 -33.685 
L 152.121466 -33.685 
L 153.470291 -33.685 
L 154.819116 -33.685 
L 156.167941 -33.685 
L 157.516767 -33.685 
L 158.865592 -33.685 
L 160.214417 -33.685 
L 161.563242 -33.685 
L 162.912067 -33.685 
L 164.260892 -33.685 
L 165.609718 -33.685 
L 166.958543 -33.685 
L 168.307368 -33.685 
L 169.656193 -33.685 
L 171.005018 -33.685 
L 172.353844 -33.685 
L 173.702669 -33.685 
L 175.051494 -33.685 
L 176.400319 -33.685 
L 177.749144 -33.685 
L 179.097969 -33.685 
L 180.446795 -33.685 
L 181.79562 -33.685 
L 183.144445 -33.685 
L 184.49327 -33.685 
L 185.842095 -33.685 
L 187.190921 -33.685 
L 188.539746 -33.685 
L 189.888571 -33.685 
L 191.237396 -33.685 
L 192.586221 -33.685 
L 193.935046 -33.685 
L 195.283872 -33.685 
L 196.632697 -33.685 
L 196.632697 -38.2499 
L 196.632697 -38.2499 
L 195.283872 -39.362132 
L 193.935046 -40.472095 
L 192.586221 -41.579477 
L 191.237396 -42.683404 
L 189.888571 -43.784102 
L 188.539746 -44.881227 
L 187.190921 -45.973797 
L 185.842095 -47.0622 
L 184.49327 -48.146049 
L 183.144445 -49.224292 
L 181.79562 -50.297467 
L 180.446795 -51.365133 
L 179.097969 -52.426211 
L 177.749144 -53.48137 
L 176.400319 -54.530107 
L 175.051494 -55.571358 
L 173.702669 -56.605902 
L 172.353844 -57.63317 
L 171.005018 -58.65215 
L 169.656193 -59.66371 
L 168.307368 -60.667214 
L 166.958543 -61.661736 
L 165.609718 -62.648214 
L 164.260892 -63.625941 
L 162.912067 -64.59411 
L 161.563242 -65.55371 
L 160.214417 -66.503963 
L 158.865592 -67.444209 
L 157.516767 -68.375465 
L 156.167941 -69.296889 
L 154.819116 -70.207988 
L 153.470291 -71.10979 
L 152.121466 -72.001393 
L 150.772641 -72.88249 
L 149.423815 -73.754101 
L 148.07499 -74.615272 
L 146.726165 -75.465893 
L 145.37734 -76.306958 
L 144.028515 -77.137477 
L 142.67969 -77.957535 
L 141.330864 -78.768092 
L 139.982039 -79.56813 
L 138.633214 -80.357931 
L 137.284389 -81.138406 
L 135.935564 -81.908525 
L 134.586738 -82.66876 
L 133.237913 -83.41996 
L 131.889088 -84.161106 
L 130.540263 -84.892839 
L 129.191438 -85.615943 
L 127.842612 -86.329426 
L 126.493787 -87.034079 
L 125.144962 -87.730616 
L 123.796137 -88.418093 
L 122.447312 -89.097421 
L 121.098487 -89.769247 
L 119.749661 -90.432692 
L 118.400836 -91.088759 
L 117.052011 -91.738026 
L 115.703186 -92.3797 
L 114.354361 -93.014843 
L 113.005535 -93.643964 
L 111.65671 -94.26638 
L 110.307885 -94.88317 
L 108.95906 -95.494783 
L 107.610235 -96.100663 
L 106.26141 -96.701868 
L 104.912584 -97.298792 
L 103.563759 -97.891025 
L 102.214934 -98.479561 
L 100.866109 -99.064751 
L 99.517284 -99.646346 
L 98.168458 -100.225236 
L 96.819633 -100.801735 
L 95.470808 -101.375771 
L 94.121983 -101.948091 
L 92.773158 -102.518977 
L 91.424333 -103.088564 
L 90.075507 -103.657396 
L 88.726682 -104.225757 
L 87.377857 -104.793955 
L 86.029032 -105.36234 
L 84.680207 -105.931206 
L 83.331381 -106.500997 
L 81.982556 -107.071883 
L 80.633731 -107.644177 
L 79.284906 -108.218419 
L 77.936081 -108.794614 
L 76.587256 -109.373105 
L 75.23843 -109.954484 
L 73.889605 -110.538613 
L 72.54078 -111.125869 
L 71.191955 -111.716859 
L 69.84313 -112.311322 
L 68.494304 -112.909671 
L 67.145479 -113.512493 
L 65.796654 -114.119423 
L 64.447829 -114.730915 
L 63.099004 -115.347501 
L 61.750178 -115.968735 
L 60.401353 -116.595108 
L 59.052528 -117.227072 
L 57.703703 -117.864117 
L 56.354878 -118.50677 
L 55.006053 -119.15538 
L 53.657227 -119.809392 
L 52.308402 -120.469364 
L 50.959577 -121.135521 
L 49.610752 -121.807286 
L 48.261927 -122.485235 
L 46.913101 -123.169463 
L 45.564276 -123.859381 
L 44.215451 -124.555578 
L 42.866626 -125.25801 
L 41.517801 -125.966095 
L 40.168976 -126.680417 
L 38.82015 -127.400798 
L 37.471325 -128.126671 
L 36.1225 -128.858603 
z
" style="stroke: #1f77b4; stroke-opacity: 0.15"/>
    </defs>
    <g clip-path="url(#pc9da202fef)">
     <use xlink:href="#mc2dabfb319" x="0" y="154.111783" style="fill: #1f77b4; fill-opacity: 0.15; stroke: #1f77b4; stroke-opacity: 0.15"/>
    </g>
   </g>
   <g id="matplotlib.axis_1">
    <g id="xtick_1">
     <g id="line2d_1">
      <defs>
       <path id="m5c7a4d4907" d="M 0 0 
L 0 3.5 
" style="stroke: #000000; stroke-width: 0.8"/>
      </defs>
      <g>
       <use xlink:href="#m5c7a4d4907" x="36.1225" y="120.426783" style="stroke: #000000; stroke-width: 0.8"/>
      </g>
     </g>
     <g id="text_1">
      <!-- 0.2 -->
      <g transform="translate(29.76125 133.505533) scale(0.08 -0.08)">
       <defs>
        <path id="DejaVuSans-30" d="M 2034 4250 
Q 1547 4250 1301 3770 
Q 1056 3291 1056 2328 
Q 1056 1369 1301 889 
Q 1547 409 2034 409 
Q 2525 409 2770 889 
Q 3016 1369 3016 2328 
Q 3016 3291 2770 3770 
Q 2525 4250 2034 4250 
z
M 2034 4750 
Q 2819 4750 3233 4129 
Q 3647 3509 3647 2328 
Q 3647 1150 3233 529 
Q 2819 -91 2034 -91 
Q 1250 -91 836 529 
Q 422 1150 422 2328 
Q 422 3509 836 4129 
Q 1250 4750 2034 4750 
z
" transform="scale(0.015625)"/>
        <path id="DejaVuSans-2e" d="M 684 794 
L 1344 794 
L 1344 0 
L 684 0 
L 684 794 
z
" transform="scale(0.015625)"/>
        <path id="DejaVuSans-32" d="M 1228 531 
L 3431 531 
L 3431 0 
L 469 0 
L 469 531 
Q 828 903 1448 1529 
Q 2069 2156 2228 2338 
Q 2531 2678 2651 2914 
Q 2772 3150 2772 3378 
Q 2772 3750 2511 3984 
Q 2250 4219 1831 4219 
Q 1534 4219 1204 4116 
Q 875 4013 500 3803 
L 500 4441 
Q 881 4594 1212 4672 
Q 1544 4750 1819 4750 
Q 2544 4750 2975 4387 
Q 3406 4025 3406 3419 
Q 3406 3131 3298 2873 
Q 3191 2616 2906 2266 
Q 2828 2175 2409 1742 
Q 1991 1309 1228 531 
z
" transform="scale(0.015625)"/>
       </defs>
       <use xlink:href="#DejaVuSans-30"/>
       <use xlink:href="#DejaVuSans-2e" x="63.623047"/>
       <use xlink:href="#DejaVuSans-32" x="95.410156"/>
      </g>
     </g>
    </g>
    <g id="xtick_2">
     <g id="line2d_2">
      <g>
       <use xlink:href="#m5c7a4d4907" x="76.250049" y="120.426783" style="stroke: #000000; stroke-width: 0.8"/>
      </g>
     </g>
     <g id="text_2">
      <!-- 0.4 -->
      <g transform="translate(69.888799 133.505533) scale(0.08 -0.08)">
       <defs>
        <path id="DejaVuSans-34" d="M 2419 4116 
L 825 1625 
L 2419 1625 
L 2419 4116 
z
M 2253 4666 
L 3047 4666 
L 3047 1625 
L 3713 1625 
L 3713 1100 
L 3047 1100 
L 3047 0 
L 2419 0 
L 2419 1100 
L 313 1100 
L 313 1709 
L 2253 4666 
z
" transform="scale(0.015625)"/>
       </defs>
       <use xlink:href="#DejaVuSans-30"/>
       <use xlink:href="#DejaVuSans-2e" x="63.623047"/>
       <use xlink:href="#DejaVuSans-34" x="95.410156"/>
      </g>
     </g>
    </g>
    <g id="xtick_3">
     <g id="line2d_3">
      <g>
       <use xlink:href="#m5c7a4d4907" x="116.377598" y="120.426783" style="stroke: #000000; stroke-width: 0.8"/>
      </g>
     </g>
     <g id="text_3">
      <!-- 0.6 -->
      <g transform="translate(110.016348 133.505533) scale(0.08 -0.08)">
       <defs>
        <path id="DejaVuSans-36" d="M 2113 2584 
Q 1688 2584 1439 2293 
Q 1191 2003 1191 1497 
Q 1191 994 1439 701 
Q 1688 409 2113 409 
Q 2538 409 2786 701 
Q 3034 994 3034 1497 
Q 3034 2003 2786 2293 
Q 2538 2584 2113 2584 
z
M 3366 4563 
L 3366 3988 
Q 3128 4100 2886 4159 
Q 2644 4219 2406 4219 
Q 1781 4219 1451 3797 
Q 1122 3375 1075 2522 
Q 1259 2794 1537 2939 
Q 1816 3084 2150 3084 
Q 2853 3084 3261 2657 
Q 3669 2231 3669 1497 
Q 3669 778 3244 343 
Q 2819 -91 2113 -91 
Q 1303 -91 875 529 
Q 447 1150 447 2328 
Q 447 3434 972 4092 
Q 1497 4750 2381 4750 
Q 2619 4750 2861 4703 
Q 3103 4656 3366 4563 
z
" transform="scale(0.015625)"/>
       </defs>
       <use xlink:href="#DejaVuSans-30"/>
       <use xlink:href="#DejaVuSans-2e" x="63.623047"/>
       <use xlink:href="#DejaVuSans-36" x="95.410156"/>
      </g>
     </g>
    </g>
    <g id="xtick_4">
     <g id="line2d_4">
      <g>
       <use xlink:href="#m5c7a4d4907" x="156.505148" y="120.426783" style="stroke: #000000; stroke-width: 0.8"/>
      </g>
     </g>
     <g id="text_4">
      <!-- 0.8 -->
      <g transform="translate(150.143898 133.505533) scale(0.08 -0.08)">
       <defs>
        <path id="DejaVuSans-38" d="M 2034 2216 
Q 1584 2216 1326 1975 
Q 1069 1734 1069 1313 
Q 1069 891 1326 650 
Q 1584 409 2034 409 
Q 2484 409 2743 651 
Q 3003 894 3003 1313 
Q 3003 1734 2745 1975 
Q 2488 2216 2034 2216 
z
M 1403 2484 
Q 997 2584 770 2862 
Q 544 3141 544 3541 
Q 544 4100 942 4425 
Q 1341 4750 2034 4750 
Q 2731 4750 3128 4425 
Q 3525 4100 3525 3541 
Q 3525 3141 3298 2862 
Q 3072 2584 2669 2484 
Q 3125 2378 3379 2068 
Q 3634 1759 3634 1313 
Q 3634 634 3220 271 
Q 2806 -91 2034 -91 
Q 1263 -91 848 271 
Q 434 634 434 1313 
Q 434 1759 690 2068 
Q 947 2378 1403 2484 
z
M 1172 3481 
Q 1172 3119 1398 2916 
Q 1625 2713 2034 2713 
Q 2441 2713 2670 2916 
Q 2900 3119 2900 3481 
Q 2900 3844 2670 4047 
Q 2441 4250 2034 4250 
Q 1625 4250 1398 4047 
Q 1172 3844 1172 3481 
z
" transform="scale(0.015625)"/>
       </defs>
       <use xlink:href="#DejaVuSans-30"/>
       <use xlink:href="#DejaVuSans-2e" x="63.623047"/>
       <use xlink:href="#DejaVuSans-38" x="95.410156"/>
      </g>
     </g>
    </g>
    <g id="xtick_5">
     <g id="line2d_5">
      <g>
       <use xlink:href="#m5c7a4d4907" x="196.632697" y="120.426783" style="stroke: #000000; stroke-width: 0.8"/>
      </g>
     </g>
     <g id="text_5">
      <!-- 1.0 -->
      <g transform="translate(190.271447 133.505533) scale(0.08 -0.08)">
       <defs>
        <path id="DejaVuSans-31" d="M 794 531 
L 1825 531 
L 1825 4091 
L 703 3866 
L 703 4441 
L 1819 4666 
L 2450 4666 
L 2450 531 
L 3481 531 
L 3481 0 
L 794 0 
L 794 531 
z
" transform="scale(0.015625)"/>
       </defs>
       <use xlink:href="#DejaVuSans-31"/>
       <use xlink:href="#DejaVuSans-2e" x="63.623047"/>
       <use xlink:href="#DejaVuSans-30" x="95.410156"/>
      </g>
     </g>
    </g>
    <g id="text_6">
     <!-- SOC -->
     <g transform="translate(107.896348 145.248033) scale(0.08 -0.08)">
      <defs>
       <path id="DejaVuSans-53" d="M 3425 4513 
L 3425 3897 
Q 3066 4069 2747 4153 
Q 2428 4238 2131 4238 
Q 1616 4238 1336 4038 
Q 1056 3838 1056 3469 
Q 1056 3159 1242 3001 
Q 1428 2844 1947 2747 
L 2328 2669 
Q 3034 2534 3370 2195 
Q 3706 1856 3706 1288 
Q 3706 609 3251 259 
Q 2797 -91 1919 -91 
Q 1588 -91 1214 -16 
Q 841 59 441 206 
L 441 856 
Q 825 641 1194 531 
Q 1563 422 1919 422 
Q 2459 422 2753 634 
Q 3047 847 3047 1241 
Q 3047 1584 2836 1778 
Q 2625 1972 2144 2069 
L 1759 2144 
Q 1053 2284 737 2584 
Q 422 2884 422 3419 
Q 422 4038 858 4394 
Q 1294 4750 2059 4750 
Q 2388 4750 2728 4690 
Q 3069 4631 3425 4513 
z
" transform="scale(0.015625)"/>
       <path id="DejaVuSans-4f" d="M 2522 4238 
Q 1834 4238 1429 3725 
Q 1025 3213 1025 2328 
Q 1025 1447 1429 934 
Q 1834 422 2522 422 
Q 3209 422 3611 934 
Q 4013 1447 4013 2328 
Q 4013 3213 3611 3725 
Q 3209 4238 2522 4238 
z
M 2522 4750 
Q 3503 4750 4090 4092 
Q 4678 3434 4678 2328 
Q 4678 1225 4090 567 
Q 3503 -91 2522 -91 
Q 1538 -91 948 565 
Q 359 1222 359 2328 
Q 359 3434 948 4092 
Q 1538 4750 2522 4750 
z
" transform="scale(0.015625)"/>
       <path id="DejaVuSans-43" d="M 4122 4306 
L 4122 3641 
Q 3803 3938 3442 4084 
Q 3081 4231 2675 4231 
Q 1875 4231 1450 3742 
Q 1025 3253 1025 2328 
Q 1025 1406 1450 917 
Q 1875 428 2675 428 
Q 3081 428 3442 575 
Q 3803 722 4122 1019 
L 4122 359 
Q 3791 134 3420 21 
Q 3050 -91 2638 -91 
Q 1578 -91 968 557 
Q 359 1206 359 2328 
Q 359 3453 968 4101 
Q 1578 4750 2638 4750 
Q 3056 4750 3426 4639 
Q 3797 4528 4122 4306 
z
" transform="scale(0.015625)"/>
      </defs>
      <use xlink:href="#DejaVuSans-53"/>
      <use xlink:href="#DejaVuSans-4f" x="63.476562"/>
      <use xlink:href="#DejaVuSans-43" x="142.1875"/>
     </g>
    </g>
   </g>
   <g id="matplotlib.axis_2">
    <g id="ytick_1">
     <g id="line2d_6">
      <defs>
       <path id="maba4bf3db0" d="M 0 0 
L -3.5 0 
" style="stroke: #000000; stroke-width: 0.8"/>
      </defs>
      <g>
       <use xlink:href="#maba4bf3db0" x="36.1225" y="120.426783" style="stroke: #000000; stroke-width: 0.8"/>
      </g>
     </g>
     <g id="text_7">
      <!-- 0 -->
      <g transform="translate(24.0325 123.466158) scale(0.08 -0.08)">
       <use xlink:href="#DejaVuSans-30"/>
      </g>
     </g>
    </g>
    <g id="ytick_2">
     <g id="line2d_7">
      <g>
       <use xlink:href="#maba4bf3db0" x="36.1225" y="95.066226" style="stroke: #000000; stroke-width: 0.8"/>
      </g>
     </g>
     <g id="text_8">
      <!-- 20 -->
      <g transform="translate(18.9425 98.105601) scale(0.08 -0.08)">
       <use xlink:href="#DejaVuSans-32"/>
       <use xlink:href="#DejaVuSans-30" x="63.623047"/>
      </g>
     </g>
    </g>
    <g id="ytick_3">
     <g id="line2d_8">
      <g>
       <use xlink:href="#maba4bf3db0" x="36.1225" y="69.705668" style="stroke: #000000; stroke-width: 0.8"/>
      </g>
     </g>
     <g id="text_9">
      <!-- 40 -->
      <g transform="translate(18.9425 72.745043) scale(0.08 -0.08)">
       <use xlink:href="#DejaVuSans-34"/>
       <use xlink:href="#DejaVuSans-30" x="63.623047"/>
      </g>
     </g>
    </g>
    <g id="ytick_4">
     <g id="line2d_9">
      <g>
       <use xlink:href="#maba4bf3db0" x="36.1225" y="44.34511" style="stroke: #000000; stroke-width: 0.8"/>
      </g>
     </g>
     <g id="text_10">
      <!-- 60 -->
      <g transform="translate(18.9425 47.384485) scale(0.08 -0.08)">
       <use xlink:href="#DejaVuSans-36"/>
       <use xlink:href="#DejaVuSans-30" x="63.623047"/>
      </g>
     </g>
    </g>
    <g id="text_11">
     <!-- 电流 (A) -->
     <g transform="translate(13.27875 82.390642) rotate(-90) scale(0.08 -0.08)">
      <defs>
       <path id="DejaVuSans-7535" d="M 319 -1131 
L 319 4513 
L 3519 4513 
L 3519 -1131 
L 319 -1131 
z
M 678 -775 
L 3163 -775 
L 3163 4153 
L 678 4153 
L 678 -775 
z
" transform="scale(0.015625)"/>
       <path id="DejaVuSans-6d41" d="M 319 -1131 
L 319 4513 
L 3519 4513 
L 3519 -1131 
L 319 -1131 
z
M 678 -775 
L 3163 -775 
L 3163 4153 
L 678 4153 
L 678 -775 
z
" transform="scale(0.015625)"/>
       <path id="DejaVuSans-20" transform="scale(0.015625)"/>
       <path id="DejaVuSans-28" d="M 1984 4856 
Q 1566 4138 1362 3434 
Q 1159 2731 1159 2009 
Q 1159 1288 1364 580 
Q 1569 -128 1984 -844 
L 1484 -844 
Q 1016 -109 783 600 
Q 550 1309 550 2009 
Q 550 2706 781 3412 
Q 1013 4119 1484 4856 
L 1984 4856 
z
" transform="scale(0.015625)"/>
       <path id="DejaVuSans-41" d="M 2188 4044 
L 1331 1722 
L 3047 1722 
L 2188 4044 
z
M 1831 4666 
L 2547 4666 
L 4325 0 
L 3669 0 
L 3244 1197 
L 1141 1197 
L 716 0 
L 50 0 
L 1831 4666 
z
" transform="scale(0.015625)"/>
       <path id="DejaVuSans-29" d="M 513 4856 
L 1013 4856 
Q 1481 4119 1714 3412 
Q 1947 2706 1947 2009 
Q 1947 1309 1714 600 
Q 1481 -109 1013 -844 
L 513 -844 
Q 928 -128 1133 580 
Q 1338 1288 1338 2009 
Q 1338 2731 1133 3434 
Q 928 4138 513 4856 
z
" transform="scale(0.015625)"/>
      </defs>
      <use xlink:href="#DejaVuSans-7535"/>
      <use xlink:href="#DejaVuSans-6d41" x="60.009766"/>
      <use xlink:href="#DejaVuSans-20" x="120.019531"/>
      <use xlink:href="#DejaVuSans-28" x="151.806641"/>
      <use xlink:href="#DejaVuSans-41" x="190.820312"/>
      <use xlink:href="#DejaVuSans-29" x="259.228516"/>
     </g>
    </g>
   </g>
   <g id="line2d_10">
    <path d="M 36.1225 25.25318 
L 37.471325 25.985112 
L 38.82015 26.710986 
L 40.168976 27.431367 
L 41.517801 28.145688 
L 42.866626 28.853773 
L 44.215451 29.556206 
L 45.564276 30.252403 
L 46.913101 30.942321 
L 48.261927 31.626549 
L 49.610752 32.304498 
L 50.959577 32.976262 
L 52.308402 33.64242 
L 53.657227 34.302391 
L 55.006053 34.956403 
L 56.354878 35.605013 
L 57.703703 36.247666 
L 59.052528 36.884711 
L 60.401353 37.516676 
L 61.750178 38.143049 
L 63.099004 38.764282 
L 64.447829 39.380869 
L 65.796654 39.992361 
L 67.145479 40.599291 
L 68.494304 41.202113 
L 69.84313 41.800462 
L 71.191955 42.394924 
L 72.54078 42.985914 
L 73.889605 43.573171 
L 75.23843 44.1573 
L 76.587256 44.738679 
L 77.936081 45.31717 
L 79.284906 45.893365 
L 80.633731 46.467606 
L 81.982556 47.039901 
L 83.331381 47.610786 
L 84.680207 48.180577 
L 86.029032 48.749443 
L 87.377857 49.317828 
L 88.726682 49.886026 
L 90.075507 50.454387 
L 91.424333 51.02322 
L 92.773158 51.592806 
L 94.121983 52.163693 
L 95.470808 52.736012 
L 96.819633 53.310048 
L 98.168458 53.886548 
L 99.517284 54.465437 
L 100.866109 55.047032 
L 102.214934 55.632222 
L 103.563759 56.220758 
L 104.912584 56.812992 
L 106.26141 57.409916 
L 107.610235 58.01112 
L 108.95906 58.617001 
L 110.307885 59.228614 
L 111.65671 59.845404 
L 113.005535 60.46782 
L 114.354361 61.096941 
L 115.703186 61.732083 
L 117.052011 62.373758 
L 118.400836 63.023024 
L 119.749661 63.679092 
L 121.098487 64.342536 
L 122.447312 65.014362 
L 123.796137 65.693691 
L 125.144962 66.381167 
L 126.493787 67.077705 
L 127.842612 67.782357 
L 129.191438 68.49584 
L 130.540263 69.218945 
L 131.889088 69.950677 
L 133.237913 70.691823 
L 134.586738 71.443023 
L 135.935564 72.203258 
L 137.284389 72.973378 
L 138.633214 73.753852 
L 139.982039 74.543654 
L 141.330864 75.343691 
L 142.67969 76.154248 
L 144.028515 76.974307 
L 145.37734 77.804825 
L 146.726165 78.645891 
L 148.07499 79.496511 
L 149.423815 80.357683 
L 150.772641 81.229293 
L 152.121466 82.11039 
L 153.470291 83.001993 
L 154.819116 83.903795 
L 156.167941 84.814895 
L 157.516767 85.736318 
L 158.865592 86.667574 
L 160.214417 87.60782 
L 161.563242 88.558074 
L 162.912067 89.517673 
L 164.260892 90.485842 
L 165.609718 91.46357 
L 166.958543 92.450048 
L 168.307368 93.444569 
L 169.656193 94.448074 
L 171.005018 95.459634 
L 172.353844 96.478613 
L 173.702669 97.505882 
L 175.051494 98.540425 
L 176.400319 99.581676 
L 177.749144 100.630414 
L 179.097969 101.685572 
L 180.446795 102.746651 
L 181.79562 103.814317 
L 183.144445 104.887492 
L 184.49327 105.965735 
L 185.842095 107.049583 
L 187.190921 108.137987 
L 188.539746 109.230556 
L 189.888571 110.327681 
L 191.237396 111.42838 
L 192.586221 112.532306 
L 193.935046 113.639688 
L 195.283872 114.749651 
L 196.632697 115.861883 
" clip-path="url(#pc9da202fef)" style="fill: none; stroke: #1f77b4; stroke-width: 1.2; stroke-linecap: square"/>
   </g>
   <g id="patch_3">
    <path d="M 36.1225 120.426783 
L 36.1225 20.4945 
" style="fill: none; stroke: #000000; stroke-width: 0.8; stroke-linejoin: miter; stroke-linecap: square"/>
   </g>
   <g id="patch_4">
    <path d="M 196.632697 120.426783 
L 196.632697 20.4945 
" style="fill: none; stroke: #000000; stroke-width: 0.8; stroke-linejoin: miter; stroke-linecap: square"/>
   </g>
   <g id="patch_5">
    <path d="M 36.1225 120.426783 
L 196.632697 120.426783 
" style="fill: none; stroke: #000000; stroke-width: 0.8; stroke-linejoin: miter; stroke-linecap: square"/>
   </g>
   <g id="patch_6">
    <path d="M 36.1225 20.4945 
L 196.632697 20.4945 
" style="fill: none; stroke: #000000; stroke-width: 0.8; stroke-linejoin: miter; stroke-linecap: square"/>
   </g>
   <g id="text_12">
    <!-- 电流随 SOC 的变化 -->
    <g transform="translate(85.864598 14.4945) scale(0.096 -0.096)">
     <defs>
      <path id="DejaVuSans-968f" d="M 319 -1131 
L 319 4513 
L 3519 4513 
L 3519 -1131 
L 319 -1131 
z
M 678 -775 
L 3163 -775 
L 3163 4153 
L 678 4153 
L 678 -775 
z
" transform="scale(0.015625)"/>
      <path id="DejaVuSans-7684" d="M 319 -1131 
L 319 4513 
L 3519 4513 
L 3519 -1131 
L 319 -1131 
z
M 678 -775 
L 3163 -775 
L 3163 4153 
L 678 4153 
L 678 -775 
z
" transform="scale(0.015625)"/>
      <path id="DejaVuSans-53d8" d="M 319 -1131 
L 319 4513 
L 3519 4513 
L 3519 -1131 
L 319 -1131 
z
M 678 -775 
L 3163 -775 
L 3163 4153 
L 678 4153 
L 678 -775 
z
" transform="scale(0.015625)"/>
      <path id="DejaVuSans-5316" d="M 319 -1131 
L 319 4513 
L 3519 4513 
L 3519 -1131 
L 319 -1131 
z
M 678 -775 
L 3163 -775 
L 3163 4153 
L 678 4153 
L 678 -775 
z
" transform="scale(0.015625)"/>
     </defs>
     <use xlink:href="#DejaVuSans-7535"/>
     <use xlink:href="#DejaVuSans-6d41" x="60.009766"/>
     <use xlink:href="#DejaVuSans-968f" x="120.019531"/>
     <use xlink:href="#DejaVuSans-20" x="180.029297"/>
     <use xlink:href="#DejaVuSans-53" x="211.816406"/>
     <use xlink:href="#DejaVuSans-4f" x="275.292969"/>
     <use xlink:href="#DejaVuSans-43" x="354.003906"/>
     <use xlink:href="#DejaVuSans-20" x="423.828125"/>
     <use xlink:href="#DejaVuSans-7684" x="455.615234"/>
     <use xlink:href="#DejaVuSans-53d8" x="515.625"/>
     <use xlink:href="#DejaVuSans-5316" x="575.634766"/>
    </g>
   </g>
  </g>
 </g>
 <defs>
  <clipPath id="pc9da202fef">
   <rect x="36.1225" y="20.4945" width="160.510197" height="99.932283"/>
  </clipPath>
 </defs>
</svg>
